<svg width="48" height="10" viewBox="0 0 48 10" fill="none" xmlns="http://www.w3.org/2000/svg">
<path d="M47.2095 2.18344C46.4096 2.40672 45.5874 2.54041 44.758 2.58205L38.0745 3.30621C36.5625 3.47892 35.0713 3.80163 33.6232 4.26955C32.834 4.5352 32.0748 4.88255 31.3577 5.30596C30.5815 5.829 29.7739 6.30381 28.9394 6.7277C28.4366 6.96308 27.8868 7.08121 27.3317 7.07318C26.7204 7.03762 26.1425 6.78287 25.704 6.35566C24.8602 5.48534 24.6277 4.429 24.0763 3.75134C23.8482 3.41858 23.505 3.18194 23.1129 3.08697C22.6926 2.9938 22.2543 3.02378 21.8506 3.17334C20.9442 3.50304 20.1839 4.14329 19.7047 4.98041C19.1267 5.83745 18.675 6.81407 18.0172 7.73089C17.3771 8.71604 16.4285 9.46132 15.3199 9.85023C14.738 10.0164 14.1213 10.0164 13.5394 9.85023C12.9881 9.68671 12.4799 9.4031 12.0512 9.01977C11.2848 8.31641 10.6875 7.44879 10.3039 6.48188C9.91861 5.59163 9.63957 4.72795 9.25423 3.97057C8.81236 2.93529 8.01001 2.0954 6.99598 1.60672C5.98195 1.11803 4.82509 1.0137 3.74 1.31311C3.16364 1.45839 2.62491 1.72496 2.15977 2.09501C1.69463 2.46505 1.3138 2.93008 1.04267 3.45902C0.609026 4.27533 0.40251 5.19311 0.444721 6.11649C0.461366 6.70812 0.587529 7.29153 0.816785 7.83719C0.969589 8.22253 1.07589 8.4152 1.04267 8.44177C1.00945 8.46835 0.849998 8.30225 0.624113 7.93685C0.297997 7.39186 0.0960956 6.78164 0.0328167 6.1497C-0.094422 5.13874 0.0716196 4.11252 0.511162 3.19327C0.798973 2.56791 1.21785 2.01172 1.73939 1.56239C2.26094 1.11305 2.87299 0.781076 3.53404 0.588948C4.3414 0.353297 5.19125 0.301393 6.02128 0.437049C6.85131 0.572705 7.64045 0.892483 8.33077 1.37291C9.08192 1.93421 9.6841 2.67099 10.0847 3.51881C10.5165 4.34927 10.8221 5.22623 11.2008 6.05669C11.535 6.88412 12.053 7.62474 12.7156 8.22253C13.0179 8.51315 13.3907 8.71992 13.7973 8.82245C14.204 8.92498 14.6303 8.91971 15.0342 8.80716C15.9058 8.48049 16.6489 7.8818 17.1536 7.09975C17.7316 6.29586 18.1833 5.31924 18.8145 4.37584C19.1355 3.8867 19.5172 3.44023 19.9505 3.0471C20.4071 2.65024 20.9377 2.34768 21.5118 2.15685C22.1043 1.95424 22.7412 1.91975 23.3521 2.0572C23.9719 2.21037 24.5177 2.57741 24.8934 3.09361C25.5977 4.03702 25.8368 5.08671 26.4082 5.61156C26.6675 5.87169 27.0118 6.02971 27.3782 6.05669C27.7818 6.05977 28.1811 5.97357 28.5475 5.80423C29.3497 5.40668 30.1284 4.96303 30.8794 4.4755C31.657 4.02977 32.4814 3.67106 33.3375 3.40587C34.8527 2.95271 36.4116 2.66098 37.9881 2.53555C40.8449 2.29638 43.1369 2.22329 44.7314 2.14356C45.5564 2.0652 46.3875 2.07858 47.2095 2.18344Z" fill="#034833"/>
</svg>
