<svg width="54" height="32" viewBox="0 0 54 32" fill="none" xmlns="http://www.w3.org/2000/svg">
<path d="M27.8723 28.0882C27.493 27.7847 27.4172 27.4054 27.5689 26.7605L34.8519 1.53545C34.9657 1.04233 35.383 0.700928 35.914 0.700928H53.0595C53.7423 0.700928 54.0078 1.00439 54.0078 1.64924V4.22864C53.9699 4.72176 53.8181 5.17695 53.5526 5.55628L34.5105 30.6676C34.2071 31.1228 33.5622 31.2745 33.0691 30.971L27.8723 28.0882ZM1.1679 28.0882C0.788574 27.7847 0.712715 27.4054 0.864445 26.7605L8.14748 1.53545C8.26128 1.00439 8.7544 0.662996 9.28545 0.700928H26.3551C27.0378 0.700928 27.3034 1.00439 27.3034 1.64924V4.22864C27.2654 4.72176 27.1137 5.17695 26.8482 5.55628L7.88195 30.6676C7.57849 31.1228 6.93364 31.2745 6.44052 30.9331L1.1679 28.0882Z" fill="white"/>
</svg>
